<?xml version="1.0" encoding="utf-8"?>
<svg width="64px" height="65px" viewBox="0 0 64 65" version="1.1" xmlns:xlink="http://www.w3.org/1999/xlink" xmlns="http://www.w3.org/2000/svg">
  <desc>Created with Lunacy</desc>
  <defs>
    <path d="M0 0L64 0L64 64L0 64L0 0Z" id="path_1" />
    <path d="M0 0L13 0L13 13L0 13L0 0Z" id="path_2" />
    <clipPath id="mask_1">
      <use xlink:href="#path_1" />
    </clipPath>
    <clipPath id="mask_2">
      <use xlink:href="#path_2" />
    </clipPath>
  </defs>
  <g id="Group">
    <g id="pdf">
      <path d="M0 0L64 0L64 64L0 64L0 0Z" id="Background" fill="none" stroke="none" />
      <g clip-path="url(#mask_1)">
        <path d="M12.24 4.76837e-07L41 4.76837e-07C42.6569 4.76837e-07 44 1.34315 44 3L44 51C44 52.6569 42.6569 54 41 54L3 54C1.34315 54 0 52.6569 0 51L0 12.24C0.000614166 11.4449 0.317061 10.6824 0.87977 10.1202L10.12 0.880001C10.6821 0.317231 11.4446 0.000700951 12.24 0L12.24 4.76837e-07Z" transform="translate(5 5.9400024)" id="Shape" fill="#FAEFDE" stroke="none" />
        <path d="M0 34.21L34.21 0L39.96 0.25L0.15 40.06L0 34.21ZM28.15 0.0599999L0 28.21L0 31.21L31.15 0.0599999L28.15 0.0599999ZM0.15 54.06L0 44.6L43.49 1.12L44.15 24.06L14.15 54.06L0.15 54.06Z" transform="translate(4.850006 4.9400024)" id="Shape" fill="#FFF7F0" fill-rule="evenodd" stroke="none" />
        <path d="M15.42 0L16.27 1.56L17.84 2.42L16.27 3.27L15.42 4.84L14.56 3.27L13 2.42L14.56 1.56L15.42 0ZM31.74 4.26L30.5 2L29.26 4.26L27 5.5L29.26 6.74L30.5 9L31.74 6.74L34 5.5L31.74 4.26ZM2.23 32.06L1.65 31L1.06 32.06L0 32.65L1.06 33.23L1.65 34.3L2.23 33.23L3.3 32.65L2.23 32.06Z" transform="translate(9 11)" id="Shape" fill="#FFFFFF" fill-rule="evenodd" stroke="none" />
        <path d="M12 0L12 12L0 12L12 0L12 0Z" transform="translate(5 5)" id="Shape" fill="#BBDEF9" stroke="none" />
        <path d="M0 0L44 0L44 21L0 21L0 0Z" transform="translate(15 22)" id="Shape" fill="#85CBF8" stroke="none" />
        <g id="Group-3" transform="translate(8 52.000015)">
          <path d="M1 0C0.447715 0 0 0.447716 0 1L0 3C0 3.55228 0.447715 4 1 4C1.55228 4 2 3.55228 2 3L2 1C2 0.447716 1.55228 0 1 0ZM6 0C5.44771 0 5 0.447716 5 1L5 3C5 3.55228 5.44771 4 6 4C6.55228 4 7 3.55228 7 3L7 1C7 0.447716 6.55228 0 6 0ZM12 3C12 3.55228 11.5523 4 11 4C10.4477 4 10 3.55228 10 3L10 1C10 0.447716 10.4477 0 11 0C11.5523 0 12 0.447716 12 1L12 3ZM16 4C16.5523 4 17 3.55228 17 3L17 1C17 0.447716 16.5523 0 16 0C15.4477 0 15 0.447716 15 1L15 3C15 3.55228 15.4477 4 16 4ZM32 3C32 3.55228 31.5523 4 31 4C30.4477 4 30 3.55228 30 3L30 1C30 0.447716 30.4477 0 31 0C31.5523 0 32 0.447716 32 1L32 3Z" id="Shape" fill="#8D6C9F" fill-rule="evenodd" stroke="none" />
        </g>
        <g id="Group" transform="translate(4.0021057 5.0014496)">
          <path d="M45.998 15.9989L45.9984 2.99995C45.9984 1.34313 44.6553 7.98495e-06 42.9985 7.98495e-06L13.6596 7.98495e-06C12.3326 -0.00236185 11.0591 0.522859 10.1197 1.45998L1.45997 10.1198C0.522859 11.0593 -0.00235458 12.3328 1.56962e-05 13.6597L1.52194e-05 52.9989C1.52194e-05 54.6558 1.34311 55.9989 2.99991 55.9989L42.9985 55.9989C44.6553 55.9989 45.9984 54.6558 45.9984 52.9989L45.9984 38.9992L53.998 38.9991C55.1026 38.9991 55.9978 38.1035 55.9978 36.999L55.9979 17.9987C55.9979 16.8941 55.1024 15.9988 53.9979 15.9988L45.998 15.9989ZM44 52.9986C44 53.5508 43.5523 53.9986 43 53.9986L3 53.9986C2.44772 53.9986 2 53.5508 2 52.9986L2 13.9986L11 13.9986C12.6569 13.9986 14 12.6554 14 10.9986L14 1.99855L43 1.99855C43.5523 1.99855 44 2.44627 44 2.99855L44 15.9986L12 15.9986C10.8954 15.9986 10 16.894 10 17.9986L10 36.9986C10 38.1031 10.8954 38.9986 12 38.9986L44 38.9986L44 52.9986ZM11.9979 2.49855C11.8323 2.60962 11.6782 2.73691 11.5379 2.87855L2.87789 11.5386C2.73626 11.6789 2.60896 11.833 2.49789 11.9986L10.9979 11.9986C11.5502 11.9986 11.9979 11.5508 11.9979 10.9986L11.9979 2.49855ZM11.9979 36.9986L53.9979 36.9986L53.9979 17.9985L11.9979 17.9985L11.9979 36.9986Z" id="Shape" fill="#8D6C9F" fill-rule="evenodd" stroke="none" />
        </g>
        <g id="Group-2" transform="translate(24 26.5)">
          <path d="M1 12C1.55228 12 2 11.5523 2 11L2 8L5 8C6.65685 8 8 6.65685 8 5L8 3C8 1.34315 6.65685 0 5 0L1 0C0.447716 0 0 0.447716 0 1L0 11C0 11.5523 0.447716 12 1 12ZM11 12L14 12C16.2091 12 18 10.2091 18 8L18 4C18 1.79086 16.2091 0 14 0L11 0C10.4477 0 10 0.447716 10 1L10 11C10 11.5523 10.4477 12 11 12ZM22 11C22 11.5523 21.5523 12 21 12C20.4477 12 20 11.5523 20 11L20 1C20 0.447716 20.4477 0 21 0L26 0C26.5523 0 27 0.447716 27 1C27 1.55228 26.5523 2 26 2L22 2L22 6L25 6C25.5523 6 26 6.44772 26 7C26 7.55228 25.5523 8 25 8L22 8L22 11ZM5 2L2 2L2 6L5 6C5.55228 6 6 5.55228 6 5L6 3C6 2.44772 5.55228 2 5 2ZM14 2L12 2L12 10L14 10C15.1046 10 16 9.10457 16 8L16 4C16 2.89543 15.1046 2 14 2Z" id="Shape" fill="#FFFFFF" fill-rule="evenodd" stroke="none" />
        </g>
      </g>
    </g>
    <g id="padlock" transform="translate(34.399994 45.200027)">
      <path d="M0 0L13 0L13 13L0 13L0 0Z" id="Background" fill="none" stroke="none" />
      <g clip-path="url(#mask_2)">
        <path d="M0 3.85938L0 5.28125L1.21875 5.28125L1.21875 3.65625C1.21875 2.31006 2.31006 1.21875 3.65625 1.21875L4.0625 1.21875C5.40869 1.21875 6.5 2.31006 6.5 3.65625L6.5 4.0625L7.71875 4.0625L7.71875 3.85938C7.71875 1.7279 5.99085 0 3.85938 0L3.85938 0C1.7279 0 0 1.7279 0 3.85938L0 3.85938Z" transform="translate(2.6406252 0.203125)" id="Shape" fill="#F9E3AE" stroke="none" />
        <path d="M0 0L1.21875 0L1.21875 1.21875L0 1.21875L0 0Z" transform="translate(5.890626 0.203125)" id="Shape" fill="#F5C872" stroke="none" />
        <path d="M0 1.21875L0 0.609375C0 0.441101 0.0594939 0.29747 0.178482 0.178482C0.29747 0.0594939 0.441101 0 0.609375 0L9.54688 0C9.71515 0 9.85878 0.0594939 9.97777 0.178482C10.0968 0.29747 10.1562 0.441101 10.1563 0.609375L10.1563 6.29688C10.1562 6.46515 10.0968 6.60878 9.97777 6.72777C9.85878 6.84676 9.71515 6.90625 9.54688 6.90625L0.609375 6.90625C0.441101 6.90625 0.29747 6.84676 0.178482 6.72777C0.0594939 6.60878 0 6.46515 0 6.29688L0 1.21875Z" transform="translate(1.421875 5.484375)" id="Rectangle" fill="#C2CDE7" stroke="none" />
        <path d="M0.8125 0L9.34375 0C9.79248 0 10.1563 0.363768 10.1563 0.8125L10.1563 3.25C10.1563 3.58655 9.88342 3.85938 9.54688 3.85938L0.609375 3.85938C0.272826 3.85938 0 3.58655 0 3.25L0 0.8125C0 0.363768 0.363769 0 0.8125 0L0.8125 0Z" transform="translate(1.421875 8.53125)" id="Shape" fill="#ACB7D0" stroke="none" />
        <path d="M1.82813 0C0.818479 0 0 0.81848 0 1.82813C0 2.83777 0.81848 3.65625 1.82813 3.65625C2.83777 3.65625 3.65625 2.83777 3.65625 1.82813C3.65625 0.81848 2.83777 0 1.82813 0L1.82813 0Z" transform="translate(4.671875 6.703125)" id="Shape" fill="#F5C872" stroke="none" />
        <path d="M1.01563 0C0.454711 0 0 0.454711 0 1.01563C0 1.57654 0.454711 2.03125 1.01563 2.03125C1.57654 2.03125 2.03125 1.57654 2.03125 1.01563C2.03125 0.454711 1.57654 0 1.01563 0L1.01563 0Z" transform="translate(5.484375 7.515625)" id="Shape" fill="#FFEB9B" stroke="none" />
        <path d="M2.84375 5.28125L9.95313 5.28125C10.2897 5.28125 10.5625 5.55408 10.5625 5.89062L10.5625 11.9844C10.5625 12.3209 10.2897 12.5938 9.95313 12.5938L0.609375 12.5938C0.272826 12.5938 0 12.3209 0 11.9844L0 5.89062C0 5.55408 0.272826 5.28125 0.609375 5.28125L1.21875 5.28125L1.21875 3.85938C1.21875 1.7279 2.94665 0 5.07813 0L5.48438 0C7.61585 0 9.34375 1.7279 9.34375 3.85938C9.34375 4.19592 9.07092 4.46875 8.73438 4.46875L8.32813 4.46875C7.99158 4.46875 7.71875 4.19592 7.71875 3.85938C7.71875 2.62536 6.71839 1.625 5.48438 1.625L5.07813 1.625C3.84411 1.625 2.84375 2.62536 2.84375 3.85938L2.84375 5.28125ZM5.6875 0.416406C5.62047 0.40625 5.55344 0.40625 5.48438 0.40625L5.07813 0.40625C5.00906 0.40625 4.94203 0.416406 4.875 0.416406L4.875 1.22891C4.94203 1.21875 5.00906 1.21875 5.07813 1.21875L5.48438 1.21875C5.55344 1.21875 5.62047 1.21875 5.6875 1.22891L5.6875 0.416406ZM1.625 3.85937C1.62641 2.1881 2.82416 0.757855 4.46899 0.463081L4.46875 1.29187C3.27882 1.57409 2.43836 2.63643 2.4375 3.85937L2.4375 5.28125L1.625 5.28125L1.625 3.85937ZM8.93751 3.85937C8.93751 3.97155 8.84657 4.06249 8.73438 4.06249L8.32813 4.06249C8.21595 4.06249 8.12501 3.97155 8.12501 3.85937C8.12407 2.63624 7.28353 1.57396 6.09358 1.29183L6.09376 0.463119C7.73857 0.758006 8.93621 2.18834 8.93751 3.85937ZM9.95313 12.1875C10.0653 12.1875 10.1563 12.0966 10.1563 11.9844L10.1563 5.89064C10.1563 5.77846 10.0653 5.68751 9.95313 5.68751L0.609375 5.68751C0.497192 5.68751 0.40625 5.77846 0.40625 5.89064L0.40625 11.9844C0.40625 12.0966 0.497192 12.1875 0.609375 12.1875L9.95313 12.1875Z" transform="translate(1.2187506 0)" id="Shape" fill="#8D6C9F" fill-rule="evenodd" stroke="none" />
        <path d="M4.0625 2.03125C4.0625 3.15308 3.15308 4.0625 2.03125 4.0625C0.909421 4.0625 0 3.15308 0 2.03125C0 0.909422 0.909421 0 2.03125 0C3.15308 0 4.0625 0.909422 4.0625 2.03125ZM3.65625 2.03125C3.65625 1.13379 2.92871 0.40625 2.03125 0.40625C1.13379 0.40625 0.40625 1.13379 0.40625 2.03125C0.40625 2.92871 1.13379 3.65625 2.03125 3.65625C2.92871 3.65625 3.65625 2.92871 3.65625 2.03125Z" transform="translate(4.46875 6.5)" id="Shape" fill="#8D6C9F" fill-rule="evenodd" stroke="none" />
        <path d="M4.67188 0.574844C4.67188 0.687027 4.58093 0.777969 4.46875 0.777969C4.35657 0.777969 4.26563 0.687027 4.26563 0.574844L4.26563 0.203125C4.26563 0.0909423 4.35657 0 4.46875 0C4.58093 0 4.67188 0.0909423 4.67188 0.203125L4.67188 0.574844ZM5.22235 0.956724C5.18402 0.994746 5.13213 1.01594 5.07813 1.01563C4.9965 1.01529 4.923 0.966118 4.89154 0.890789C4.86008 0.815461 4.87677 0.728617 4.93392 0.670318L5.19798 0.406256C5.27707 0.326606 5.40575 0.326151 5.4854 0.40524C5.56505 0.48433 5.56551 0.613012 5.48642 0.692662L5.22235 0.956724ZM3.73952 0.962808C3.82012 1.03183 3.94025 1.02719 4.01528 0.952157C4.09031 0.877129 4.09495 0.756994 4.02593 0.676402L3.76187 0.406245C3.68128 0.337229 3.56114 0.341869 3.48611 0.416897C3.41109 0.491926 3.40645 0.612061 3.47546 0.692652L3.73952 0.962808ZM3.82484 1.42188C3.82484 1.30969 3.7339 1.21875 3.62172 1.21875L3.25 1.21875C3.13782 1.21875 3.04688 1.30969 3.04688 1.42188C3.04688 1.53406 3.13782 1.625 3.25 1.625L3.62172 1.625C3.7339 1.625 3.82484 1.53406 3.82484 1.42188ZM5.31579 1.625C5.20361 1.625 5.11267 1.53406 5.11267 1.42188C5.11267 1.30969 5.20361 1.21875 5.31579 1.21875L5.68751 1.21875C5.79969 1.21875 5.89064 1.30969 5.89064 1.42188C5.89064 1.53406 5.79969 1.625 5.68751 1.625L5.31579 1.625ZM5.45139 2.38825C5.37636 2.46327 5.25622 2.46791 5.17563 2.3989L4.91157 2.13483C4.84255 2.05424 4.84719 1.93411 4.92222 1.85908C4.99725 1.78405 5.11738 1.77941 5.19798 1.84843L5.46204 2.11249C5.53105 2.19308 5.52641 2.31322 5.45139 2.38825ZM3.73952 1.87077L3.47546 2.13483C3.41749 2.18447 3.39224 2.26242 3.41009 2.33662C3.42794 2.41082 3.48588 2.46876 3.56008 2.48661C3.63428 2.50445 3.71222 2.4792 3.76187 2.42124L4.02593 2.15717C4.09494 2.07658 4.0903 1.95645 4.01528 1.88142C3.94025 1.80639 3.82011 1.80175 3.73952 1.87077ZM4.67188 2.60609C4.67188 2.71828 4.58093 2.80922 4.46875 2.80922C4.35657 2.80922 4.26563 2.71828 4.26563 2.60609L4.26563 2.23438C4.26563 2.12219 4.35657 2.03125 4.46875 2.03125C4.58093 2.03125 4.67188 2.12219 4.67188 2.23438L4.67188 2.60609ZM0.203125 4.26563L7.10938 4.26563C7.22156 4.26563 7.3125 4.35657 7.3125 4.46875C7.3125 4.58093 7.22156 4.67188 7.10938 4.67188L0.203125 4.67188C0.0909421 4.67188 0 4.58093 0 4.46875C0 4.35657 0.0909421 4.26563 0.203125 4.26563ZM8.73438 4.26563L7.92188 4.26563C7.80969 4.26563 7.71875 4.35657 7.71875 4.46875C7.71875 4.58093 7.80969 4.67188 7.92188 4.67188L8.73438 4.67188C8.84656 4.67188 8.9375 4.58093 8.9375 4.46875C8.9375 4.35657 8.84656 4.26563 8.73438 4.26563Z" transform="translate(2.03125 7.109375)" id="Shape" fill="#8D6C9F" fill-rule="evenodd" stroke="none" />
      </g>
    </g>
  </g>
</svg>